# AST/ASF file generated using VICON BodyLanguage
# -----------------------------------------------
:version 1.10
:name VICON
:units
  mass 1.0
  length 0.45
  angle deg
:documentation
   .ast/.asf automatically generated from VICON data using
   VICON BodyBuilder and BodyLanguage model FoxedUp or BRILLIANT.MOD
:root
   order TX TY TZ RX RY RZ
   axis XYZ
   position 0 0 0  
   orientation 0 0 0 
:bonedata
  begin
     id 1 
     name lhipjoint
     direction 0.707368 -0.647095 0.284426 
     length 2.60678 
     axis 0 0 0  XYZ
  end
  begin
     id 2 
     name lfemur
     direction 0.34202 -0.939693 0  
     length 6.63812  
     axis 0 0 20  XYZ
    dof rx ry rz
    limits (-160.0 20.0)
           (-70.0 70.0)
           (-60.0 70.0)
  end
  begin
     id 3 
     name ltibia
     direction 0.34202 -0.939693 0   
     length 7.51178   
     axis 0 0 20   XYZ
    dof rx
    limits (-10.0 170.0)
  end
  begin
     id 4 
     name lfoot
     direction 0.121251 -0.333133 0.935051   
     length 1.83716   
     axis -90 7.62852e-016 20   XYZ
    dof rx rz
    limits (-45.0 90.0)
           (-70.0 20.0)
  end
  begin
     id 5 
     name ltoes
     direction 1.53611e-011 -4.21962e-011 1   
     length 0.916133   
     axis -90 7.62852e-016 20   XYZ
    dof rx
    limits (-90.0 20.0)
  end
  begin
     id 6 
     name rhipjoint
     direction -0.692419 -0.660507 0.290321   
     length 2.55385  
     axis 0 0 0  XYZ 
  end
  begin
     id 7 
     name rfemur
     direction -0.34202 -0.939693 0   
     length 7.29079   
     axis 0 0 -20   XYZ
    dof rx ry rz
    limits (-160.0 20.0)
           (-70.0 70.0)
           (-70.0 60.0)
  end
  begin
     id 8 
     name rtibia
     direction -0.34202 -0.939693 0   
     length 7.47143   
     axis 0 0 -20   XYZ
    dof rx
    limits (-10.0 170.0)
 end
 begin
     id 9 
     name rfoot
     direction -0.119907 -0.329441 0.936532   
     length 1.79439  
     axis -90 -7.62852e-016 -20   XYZ
    dof rx rz
    limits (-45.0 90.0)
           (-20.0 70.0)
  end
  begin
     id 10 
     name rtoes
     direction -1.53571e-011 -4.21961e-011 1   
     length 0.896039   
     axis -90 -7.62852e-016 -20   XYZ
    dof rx
    limits (-90.0 20.0)
  end
  begin
     id 11 
     name lowerback
     direction 0.0367721 0.992912 -0.113016   
     length 1.73542   
     axis 0 0 0   XYZ
    dof rx ry rz
    limits (-20.0 45.0)
           (-30.0 30.0)
           (-30.0 30.0)
  end
  begin
     id 12 
     name upperback
     direction -0.000314626 0.990678 0.136227   
     length 1.7514   
     axis 0 0 0   XYZ
    dof rx ry rz
    limits (-20.0 45.0)
           (-30.0 30.0)
           (-30.0 30.0)
  end
  begin
     id 13 
     name thorax
     direction -0.0226159 0.981151 0.191917   
     length 1.71471   
     axis 0 0 0   XYZ
    dof rx ry rz
    limits (-20.0 45.0)
           (-30.0 30.0)
           (-30.0 30.0)
  end
  begin
     id 14 
     name lowerneck
     direction 0.0219333 0.998071 0.0580739   
     length 1.65882   
     axis 0 0 0   XYZ
    dof rx ry rz
    limits (-20.0 45.0)
           (-30.0 30.0)
           (-30.0 30.0)
  end
  begin
     id 15 
     name upperneck
     direction 0.0384529 0.980058 -0.194957   
     length 1.6612   
     axis 0 0 0   XYZ
    dof rx ry rz
    limits (-20.0 45.0)
           (-30.0 30.0)
           (-30.0 30.0)
  end
  begin
     id 16
     name head
     direction 0.00592123 0.997421 -0.0715234  
     length 1.68077  
     axis 0 0 0   XYZ
    dof rx ry rz
    limits (-20.0 45.0)
           (-30.0 30.0)
           (-30.0 30.0)
  end
  begin
     id 17 
     name lclavicle
     direction 0.904803 0.417826 0.0821728  
     length 3.42227  
     axis 0 0 0   XYZ
    dof ry rz
    limits (-20.0 10.0)
           (0.0 20.0)
  end
  begin
     id 18 
     name lhumerus
     direction 1 -4.48965e-011 -2.68786e-027   
     length 5.11878   
     axis -180 -30 -90   XYZ
    dof rx ry rz
    limits (-60.0 90.0)
           (-90.0 90.0)
           (-90.0 90.0)
  end
  begin
     id 19
     name lradius
     direction 1 -4.48965e-011 2.61168e-028   
     length 3.59971   
     axis -180 -30 -90   XYZ
    dof rx
    limits (-10.0 170.0)
  end
  begin
     id 20
     name lwrist
     direction 1 -4.48965e-011 1.58672e-027   
     length 1.79985   
     axis -1.65735e-015 90 90   XYZ
    dof ry
    limits (-180.0 0.0)
 end
  begin
     id 21 
     name lhand
     direction 1 -4.48942e-011 3.17344e-027   
     length 0.62877   
     axis -2.02492e-015 90 90   XYZ
    dof rx rz
    limits (-90.0 90.0)
           (-45.0 45.0)
  end
  begin
     id 22 
     name lfingers
     direction 1 -4.49011e-011 6.34687e-027   
     length 0.506931   
     axis -4.04985e-015 90 90   XYZ
    dof rx
    limits (0.0 90.0)
  end
  begin
     id 23
     name lthumb
     direction 0.707107 -6.34982e-011 0.707107   
     length 0.727854   
     axis -90 45 2.85299e-015   XYZ
    dof rx rz
    limits (-45.0 45.0)
           (-45.0 45.0)
  end
  begin
     id 24 
     name rclavicle
     direction -0.945647 0.32488 0.0143075   
     length 3.52737  
     axis 0 0 0   XYZ 
    dof ry rz
    limits (-10.0 20.0)
           (-20.0 0.0)
  end
  begin
     id 25 
     name rhumerus
     direction -1 -4.48962e-011 1.92182e-027  
     length 5.4902   
     axis -180 30 90   XYZ
    dof rx ry rz
    limits (-90.0 60.0)
           (-90.0 90.0)
           (-90.0 90.0)
  end
  begin
     id 26 
     name rradius
     direction -1 -4.48967e-011 -5.97193e-028   
     length 3.20659   
     axis -180 30 90   XYZ
    dof rx
    limits (-10.0 170.0)
  end
  begin
     id 27 
     name rwrist
     direction -1 -4.48964e-011 1.58672e-027   
     length 1.6033   
     axis -1.65735e-015 -90 -90   XYZ
    dof ry
    limits (-180.0 0.0)
  end
  begin
     id 28
     name rhand
     direction -1 -4.49006e-011 3.17344e-027   
     length 0.691885   
     axis -2.02492e-015 -90 -90   XYZ
    dof rx rz
    limits (-90.0 90.0)
           (-45.0 45.0)
  end
  begin
     id 29
     name rfingers
     direction -1 -4.48908e-011 6.34687e-027   
     length 0.557815   
     axis -4.04985e-015 -90 -90   XYZ
    dof rx
    limits (0.0 90.0)
  end
  begin
     id 30
     name rthumb
     direction -0.707107 -6.34999e-011 0.707107   
     length 0.800915   
     axis -90 -45 -2.85299e-015   XYZ
    dof rx rz
    limits (-45.0 45.0)
           (-45.0 45.0)
  end
:hierarchy
  begin
    root lhipjoint rhipjoint lowerback
    lhipjoint lfemur
    lfemur ltibia
    ltibia lfoot
    lfoot ltoes
    rhipjoint rfemur
    rfemur rtibia
    rtibia rfoot
    rfoot rtoes
    lowerback upperback
    upperback thorax
    thorax lowerneck lclavicle rclavicle
    lowerneck upperneck
    upperneck head
    lclavicle lhumerus
    lhumerus lradius
    lradius lwrist
    lwrist lhand lthumb
    lhand lfingers
    rclavicle rhumerus
    rhumerus rradius
    rradius rwrist
    rwrist rhand rthumb
    rhand rfingers
  end

#!OML:ASF I:\Actors\actors\Patient Classification 1\Patient 1\Session 1\Subject1.ASF
:FULLY-SPECIFIED
:DEGREES
39
root 0.881561 17.5056 8.57543 10.0344 -0.95195 -8.01475
lowerback -2.23963 0.531039 7.63972
upperback -9.60012 0.941141 0.111797
thorax -8.82616 -0.134105 -4.19775
lowerneck -5.87609 -6.19575 -5.27407
upperneck 19.5488 -9.97957 10.228
head 7.75228 -4.3367 3.35613
rclavicle 3.97569e-015 5.56597e-015
rhumerus -48.6957 -28.8012 -68.8123
rradius 27.3059
rwrist 36.9522
rhand 11.1714 -33.4025
rfingers 7.12502
rthumb 36.2365 -59.6606
lclavicle 3.97569e-015 5.56597e-015
lhumerus -52.1735 28.6054 60.6911
lradius 28.3394
lwrist -18.5315
lhand -6.02195 -10.7638
lfingers 7.12502
lthumb 19.8113 18.2465
rfemur -6.14473 24.6521 23.4785
rtibia 3.53187
rfoot -11.5014 -20.7617
rtoes -1.04677
lfemur 2.12473 -43.9211 -10.605
ltibia -3.36807
lfoot -22.5407 51.3499
ltoes 11.6314
40
root 0.884996 17.5069 8.57631 10.0101 -0.909388 -7.93075
lowerback -2.193 0.515796 7.70258
upperback -9.61929 0.92263 0.0378631
thorax -8.87809 -0.154483 -4.3119
lowerneck -5.91328 -6.18508 -5.33906
upperneck 19.6418 -9.9785 10.2904
head 7.79614 -4.33196 3.38706
rclavicle 2.5842e-015 -7.95139e-015
rhumerus -48.885 -28.9331 -68.6507
rradius 27.2388
rwrist 37.2098
rhand 11.1905 -33.4197
rfingers 7.12502
rthumb 36.2546 -59.6733
lclavicle 2.5842e-015 -7.95139e-015
lhumerus -52.1922 28.562 60.5698
lradius 28.2618
lwrist -18.481
lhand -5.12206 -10.9786
lfingers 7.12502
lthumb 20.6761 17.9401
rfemur -6.07431 24.6249 23.3914
rtibia 3.48793
rfoot -11.4511 -20.8087
rtoes -1.90829
lfemur 2.13863 -43.9344 -10.7304
ltibia -3.35237
lfoot -22.515 51.3081
ltoes 11.6165
41
root 0.888941 17.5075 8.57655 9.99057 -0.798036 -7.84821
lowerback -2.16248 0.489987 7.73879
upperback -9.63421 0.888945 -0.0173914
thorax -8.91776 -0.178676 -4.39018
lowerneck -5.94081 -6.24965 -5.49163
upperneck 19.6741 -10.0815 10.4274
head 7.83604 -4.37889 3.44655
rclavicle -1.55052e-014 4.05521e-014
rhumerus -49.014 -28.9739 -68.5415
rradius 27.1617
rwrist 37.2942
rhand 11.0765 -33.4831
rfingers 7.12502
rthumb 36.1467 -59.7634
lclavicle -1.55052e-014 4.05521e-014
lhumerus -52.1803 28.4631 60.5593
lradius 28.2059
lwrist -18.3816
lhand -4.47879 -11.2163
lfingers 7.12502
lthumb 21.2941 17.6338
rfemur -6.00445 24.5966 23.3018
rtibia 3.43461
rfoot -11.4845 -20.9169
rtoes -1.94111
lfemur 2.09024 -43.9428 -10.8088
ltibia -3.32465
lfoot -22.4913 51.2001
ltoes 11.6432
42
root 0.89231 17.5082 8.57638 9.99449 -0.661621 -7.72531
lowerback -2.16893 0.439292 7.6843
upperback -9.64953 0.81785 -0.0402938
thorax -8.94006 -0.211836 -4.38055
lowerneck -5.88341 -6.2807 -5.54375
upperneck 19.5088 -10.073 10.2915
head 7.7656 -4.39648 3.41163
rclavicle 1.20265e-014 2.38542e-015
rhumerus -49.0746 -28.9509 -68.4381
rradius 27.0592
rwrist 37.3208
rhand 10.9188 -33.5428
rfingers 7.12502
rthumb 35.9972 -59.86
lclavicle 1.20265e-014 2.38542e-015
lhumerus -52.2095 28.4366 60.5868
lradius 28.1779
lwrist -18.2611
lhand -4.17186 -11.3262
lfingers 7.12502
lthumb 21.5889 17.4904
rfemur -5.96152 24.6331 23.1553
rtibia 3.37273
rfoot -11.5668 -21.1152
rtoes -1.37835
lfemur 1.96906 -43.8939 -10.8803
ltibia -3.29487
lfoot -22.18 51.0877
ltoes 11.2584
43
root 0.894708 17.5094 8.57651 10.0031 -0.554555 -7.5885
lowerback -2.17459 0.380519 7.54677
upperback -9.66987 0.736375 -0.0225914
thorax -8.96847 -0.241848 -4.28033
lowerneck -6.05144 -6.31492 -5.66392
upperneck 19.7095 -10.1023 10.1983
head 7.86634 -4.41582 3.39299
rclavicle -9.64106e-015 1.35174e-014
rhumerus -49.1063 -28.8096 -68.3569
rradius 26.9901
rwrist 37.3424
rhand 10.846 -33.5917
rfingers 7.12502
rthumb 35.9283 -59.9258
lclavicle -9.64106e-015 1.35174e-014
lhumerus -52.2956 28.4277 60.6737
lradius 28.2035
lwrist -18.0797
lhand -4.19954 -11.3292
lfingers 7.12502
lthumb 21.5623 17.4904
rfemur -5.91073 24.7443 22.992
rtibia 3.27932
rfoot -11.6253 -21.3606
rtoes -0.888854
lfemur 1.8368 -43.7326 -10.9437
ltibia -3.29179
lfoot -21.6221 50.9391
ltoes 10.5578
44
root 0.898549 17.5102 8.57676 9.9819 -0.449389 -7.49687
lowerback -2.12964 0.331488 7.48842
upperback -9.6963 0.674539 -0.0148455
thorax -9.03217 -0.270469 -4.23662
lowerneck -6.13808 -6.37356 -5.83091
upperneck 19.8212 -10.166 10.17
head 7.93204 -4.45491 3.40217
rclavicle -5.1684e-015 2.38542e-015
rhumerus -49.1726 -28.6954 -68.2557
rradius 26.9073
rwrist 37.4496
rhand 10.848 -33.5603
rfingers 7.12502
rthumb 35.9302 -59.894
lclavicle -5.1684e-015 2.38542e-015
lhumerus -52.395 28.4179 60.7316
lradius 28.2038
lwrist -18.0128
lhand -4.61607 -11.3903
lfingers 7.12502
lthumb 21.1623 17.4747
rfemur -5.8223 24.8253 22.8954
rtibia 3.18885
rfoot -11.633 -21.5727
rtoes -0.797719
lfemur 1.74604 -43.5408 -10.9866
ltibia -3.27388
lfoot -21.2068 50.7065
ltoes 10.142
45
root 0.90452 17.5102 8.57732 9.95896 -0.358363 -7.43066
lowerback -2.07625 0.308909 7.54624
upperback -9.72434 0.649071 -0.0591995
thorax -9.09993 -0.293296 -4.3158
lowerneck -6.14458 -6.39013 -5.83195
upperneck 19.8679 -10.1875 10.1385
head 7.94906 -4.46654 3.38957
rclavicle 2.5842e-015 1.59028e-014
rhumerus -49.3032 -28.7123 -68.1126
rradius 26.8042
rwrist 37.6412
rhand 10.8557 -33.4297
rfingers 7.12502
rthumb 35.9375 -59.7615
lclavicle 2.5842e-015 1.59028e-014
lhumerus -52.4794 28.4864 60.6833
lradius 28.1477
lwrist -18.0565
lhand -5.39347 -11.5471
lfingers 7.12502
lthumb 20.4153 17.3997
rfemur -5.76005 24.8716 22.824
rtibia 3.15503
rfoot -11.6224 -21.7292
rtoes -0.918289
lfemur 1.68215 -43.348 -11.0261
ltibia -3.26148
lfoot -20.8723 50.4629
ltoes 9.90111
46
root 0.910475 17.5118 8.57819 9.99194 -0.26704 -7.25895
lowerback -2.10516 0.295465 7.50059
upperback -9.75274 0.622529 -0.142011
thorax -9.11746 -0.308277 -4.3775
lowerneck -6.09444 -6.4384 -5.77857
upperneck 19.7759 -10.2388 10.0645
head 7.90736 -4.49746 3.35176
rclavicle -5.06901e-015 1.90833e-014
rhumerus -49.4363 -28.7262 -67.9948
rradius 26.7431
rwrist 37.732
rhand 10.8776 -33.3485
rfingers 7.12502
rthumb 35.9582 -59.6753
lclavicle -5.06901e-015 1.90833e-014
lhumerus -52.5104 28.5004 60.7277
lradius 28.1312
lwrist -17.9272
lhand -6.34767 -11.5894
lfingers 7.12502
lthumb 19.4981 17.4529
rfemur -5.77178 24.8948 22.5969
rtibia 3.13276
rfoot -11.6455 -21.8734
rtoes -0.908514
lfemur 1.59462 -43.2722 -11.1874
ltibia -3.27481
lfoot -20.5997 50.3292
ltoes 9.67208
47
root 0.915777 17.5169 8.57976 10.0846 -0.0792766 -6.84351
lowerback -2.23785 0.237625 7.17303
upperback -9.79081 0.516014 -0.268191
thorax -9.08942 -0.340478 -4.32254
lowerneck -6.10231 -6.44762 -5.82734
upperneck 19.7724 -10.2611 10.1418
head 7.91639 -4.5048 3.38298
rclavicle 1.61016e-014 -1.11319e-014
rhumerus -49.5755 -28.7722 -67.8343
rradius 26.7036
rwrist 37.8212
rhand 10.832 -33.2288
rfingers 7.12502
rthumb 35.915 -59.5661
lclavicle 1.61016e-014 -1.11319e-014
lhumerus -52.5239 28.5201 60.8014
lradius 28.1026
lwrist -17.7934
lhand -7.36006 -11.523
lfingers 7.12502
lthumb 18.5245 17.615
rfemur -5.78719 24.7521 22.0618
rtibia 3.02336
rfoot -11.6936 -21.9876
rtoes -0.945006
lfemur 1.42021 -43.3749 -11.6342
ltibia -3.21944
lfoot -20.3815 50.2384
ltoes 9.45056
48
root 0.926013 17.5141 8.57903 10.0133 -0.179235 -7.18978
lowerback -2.09827 0.317772 7.66025
upperback -9.79117 0.655562 -0.209331
thorax -9.1637 -0.311168 -4.54137
lowerneck -6.12106 -6.42855 -5.89614
upperneck 19.8072 -10.2532 10.2604
head 7.9406 -4.49434 3.43435
rclavicle 1.81888e-014 -3.10104e-014
rhumerus -49.7367 -28.867 -67.6194
rradius 26.6771
rwrist 37.9681
rhand 10.6856 -33.131
rfingers 7.12502
rthumb 35.7763 -59.5021
lclavicle 1.81888e-014 -3.10104e-014
lhumerus -52.5731 28.6852 60.7405
lradius 27.9954
lwrist -17.8543
lhand -8.23853 -11.5441
lfingers 7.12502
lthumb 17.6793 17.6721
rfemur -5.8181 24.8992 22.4604
rtibia 3.18685
rfoot -11.7043 -21.9661
rtoes -1.05798
lfemur 1.61572 -43.3612 -11.3161
ltibia -3.37906
lfoot -20.5511 50.3298
ltoes 9.65432
